<?xml version="1.0"?>
<svg version="1.1" xmlns="http://www.w3.org/2000/svg" width="100" height="100" style=""><path fill="#eb101b" d="M40.7666015625,66.69921875q0,0.0439453125,0.0146484375,0.15380859375t0.0146484375,0.16845703125q0,0.46875-0.17578125,0.5712890625q-0.1611328125,0.3076171875-0.6298828125,0.3076171875q-0.17578125,0-0.263671875-0.087890625q-0.1171875,0.1171875-0.2197265625,0.1171875l-0.263671875-0.087890625l-0.1171875,0l-0.2783203125,0l-0.1171875,0q-0.05859375,0-0.12451171875-0.029296875t-0.10986328125-0.029296875l-0.0732421875,0q-0.029296875,0.029296875-0.1171875,0.029296875q-0.029296875,0-0.10986328125-0.0146484375t-0.12451171875-0.0146484375l-0.6591796875,0l-0.3369140625,0q-0.234375,0.1171875-0.3515625,0.1171875q-0.1611328125,0-0.2490234375-0.087890625q-0.05859375,0.05859375-0.17578125,0.05859375q-0.029296875,0-0.08056640625-0.0146484375t-0.06591796875-0.0146484375l-0.2783203125,0q-0.263671875,0-0.3515625-0.05859375q-0.17578125,0.05859375-0.4248046875,0.05859375q-0.17578125,0-0.3515625-0.05859375l-0.0732421875,0q-0.05859375,0-0.15380859375-0.029296875t-0.13916015625-0.029296875q-0.087890625,0-0.1171875,0.029296875q-0.05859375,0.029296875-0.1171875,0.029296875l-0.1904296875,0l-0.087890625,0q-0.05859375,0.029296875-0.146484375,0.029296875q-0.1318359375,0-0.3076171875-0.05859375q-0.17578125,0.1171875-0.3515625,0.1171875q-0.1171875,0-0.146484375-0.029296875l-0.1318359375,0q-0.0732421875,0-0.205078125,0.0146484375t-0.205078125,0.0146484375q-0.1904296875,0-0.2783203125-0.05859375q-0.1025390625,0-0.34423828125-0.0439453125t-0.34423828125-0.0439453125l-0.29296875,0q-0.2197265625,0-0.3076171875-0.029296875l-0.05859375,0q-0.0439453125,0-0.1318359375-0.02197265625t-0.1318359375-0.02197265625q-0.1318359375,0.1318359375-0.3076171875,0.1318359375q-0.17578125-0.05859375-0.234375-0.05859375q-0.1318359375,0.087890625-0.2783203125,0.087890625l-0.1171875,0l-0.322265625,0l-0.1904296875,0q-0.234375-0.0732421875-0.234375-0.4833984375q0-0.4248046875,0.1171875-0.7177734375q-0.205078125,0.205078125-0.29296875,0.205078125q-0.1171875,0-0.1171875-0.1171875t0.1171875-0.234375q0.29296875-0.380859375,0.29296875-0.3955078125q-0.029296875-0.05859375-0.029296875-0.2783203125q-0.087890625-0.263671875-0.087890625-0.5859375q0-0.556640625,0.205078125-0.6005859375q0.2490234375-0.1904296875,0.5419921875-0.1904296875q0.1318359375,0,0.1904296875,0.029296875l0.05859375,0q0.087890625,0,0.146484375,0.05859375q0.1611328125-0.0439453125,0.263671875-0.146484375q0.029296875-0.029296875,0.1318359375-0.029296875t0.205078125,0.146484375q0.0439453125-0.0439453125,0.32958984375-0.10986328125t0.35888671875-0.06591796875q0.05859375,0,0.146484375-0.09521484375t0.1904296875-0.21240234375t0.146484375-0.146484375q-0.0146484375-0.087890625-0.087890625-0.30029296875t-0.0732421875-0.32958984375q-0.0732421875-0.146484375-0.1171875-0.146484375l-0.05859375,0.0146484375q-0.0439453125,0.0146484375-0.1171875,0.0146484375l-0.087890625,0q-0.2783203125,0-0.2783203125-0.146484375q0-0.17578125,0.3076171875-0.3369140625q0.087890625-0.087890625,0.087890625-0.1171875q0-0.0146484375-0.087890625-0.146484375q-0.3955078125-0.64453125-0.4541015625-0.8935546875q-0.3515625,0.17578125-0.5126953125,0.17578125q-0.146484375,0-0.146484375-0.17578125l0-0.0732421875q-0.1318359375,0-0.3662109375-0.0146484375t-0.3515625-0.0146484375q-0.0439453125,0-0.1318359375-0.029296875t-0.1318359375-0.029296875t-0.17578125,0.0146484375t-0.1904296875,0.0146484375q-0.1171875,0-0.146484375-0.029296875q-0.3076171875,0.087890625-0.6005859375,0.087890625l-0.1171875,0l-0.1318359375,0l-0.263671875,0l-0.146484375,0q-0.05859375,0-0.205078125,0.03662109375t-0.2197265625,0.03662109375q-0.0146484375,0-0.05859375-0.02197265625t-0.05859375-0.02197265625q-0.05859375-0.029296875-0.146484375-0.029296875t-0.2783203125,0.06591796875t-0.29296875,0.06591796875t-0.1611328125-0.029296875q-0.0439453125-0.029296875-0.08056640625-0.0732421875t-0.0439453125-0.0732421875t-0.02197265625-0.05126953125t-0.029296875-0.02197265625q-0.05859375,0-0.146484375,0.087890625q-0.29296875,0.2197265625-0.4833984375,0.2197265625l-0.087890625,0q-0.1025390625-0.029296875-0.3076171875-0.03662109375t-0.263671875-0.02197265625l-0.05859375,0q-0.0439453125,0-0.10986328125,0.029296875t-0.09521484375,0.029296875q-0.1025390625,0-0.1904296875-0.087890625q-0.1025390625,0.029296875-0.12451171875,0.03662109375l-0.0439453125,0.0146484375t-0.0439453125,0.05859375t-0.05126953125,0.09521484375q-0.087890625,0.146484375-0.3955078125,0.3955078125l0,0.05859375q0,0.17578125-0.146484375,0.322265625q-0.05859375,0.05859375-0.05859375,0.146484375l0,0.1318359375l0,0.087890625q0,0.1318359375-0.17578125,0.6591796875q-0.05859375,0.380859375-0.2783203125,0.6591796875q0.0439453125,0.0732421875,0.0732421875,0.09521484375t0.0439453125,0.029296875t0.0732421875,0.00732421875t0.1171875,0.0146484375q0.087890625,0,0.146484375,0.1171875q0.029296875-0.029296875,0.1171875-0.029296875q0.05859375,0,0.087890625,0.029296875q0.146484375,0.029296875,0.3955078125,0.029296875l0.1171875,0q0.3955078125,0,0.6591796875,0.087890625q0.17578125-0.05859375,0.2490234375-0.05859375q0.29296875,0,0.43212890625,0.29296875t0.13916015625,0.673828125q0,0.1611328125-0.0439453125,0.29296875q0.234375-0.1171875,0.3076171875-0.1171875q0.1171875,0,0.1171875,0.1171875q0.029296875,0.029296875,0.029296875,0.1025390625q0,0.05859375-0.05126953125,0.1025390625t-0.15380859375,0.09521484375t-0.1171875,0.06591796875q-0.1318359375,0.1318359375-0.1318359375,0.29296875q0,0.0732421875,0.02197265625,0.24169921875t0.02197265625,0.24169921875l0,0.1171875q0.05859375,0.17578125,0.05859375,0.2783203125q0,0.234375-0.12451171875,0.3955078125t-0.32958984375,0.146484375q-0.3076171875-0.0439453125-0.5712890625-0.087890625l-0.087890625,0q-0.1171875,0-0.3369140625-0.0732421875q-0.0439453125,0.0146484375-0.1611328125,0.05859375t-0.1611328125,0.0439453125q-0.029296875,0-0.06591796875-0.0146484375t-0.05126953125-0.0146484375t-0.06591796875,0.0146484375t-0.06591796875,0.0146484375q-0.05859375,0-0.1611328125-0.0439453125t-0.1611328125-0.05859375q-0.3662109375,0.1025390625-0.6005859375,0.1025390625q-0.17578125,0.05859375-0.4248046875,0.05859375q-0.46875,0-0.6005859375-0.087890625q-0.17578125,0.05859375-0.322265625,0.05859375q-0.263671875,0-0.3662109375-0.1904296875q-0.087890625,0.1318359375-0.38818359375,0.17578125t-0.38818359375,0.1025390625q-0.0146484375,0-0.029296875,0.0146484375t-0.029296875,0.0146484375q-0.029296875,0-0.0732421875-0.029296875t-0.0732421875-0.029296875q-0.1025390625,0-0.3955078125,0.05859375q-0.087890625,0.029296875-0.263671875,0.029296875q-0.2197265625,0-0.4541015625-0.05859375l-0.1171875,0.0146484375q-0.1171875,0.0146484375-0.1904296875,0.0146484375q-0.087890625,0-0.19775390625-0.0146484375t-0.12451171875-0.0146484375q-0.1171875-0.0146484375-0.3369140625-0.0146484375t-0.37353515625-0.0146484375t-0.28564453125-0.05859375t-0.556640625-0.05859375t-0.5859375-0.1318359375q-0.0146484375,0-0.06591796875,0.029296875t-0.08056640625,0.029296875q-0.05859375,0-0.087890625-0.05859375q-0.029296875-0.029296875-0.029296875-0.087890625q0-0.0439453125,0.05126953125-0.13916015625t0.06591796875-0.12451171875q0-0.0439453125-0.0146484375-0.17578125t-0.0146484375-0.1904296875q0-0.087890625,0.0146484375-0.205078125t0.0146484375-0.146484375q0-0.146484375-0.0439453125-0.46875t-0.0439453125-0.46875q0-0.17578125,0.029296875-0.263671875q0-0.9375,0.6884765625-0.9375q0.1171875,0.0146484375,0.4833984375-0.06591796875t0.5419921875-0.08056640625q0.1904296875,0,0.322265625,0.087890625q0.1318359375-0.41015625,0.3076171875-0.5419921875q0.05859375-0.0439453125,0.12451171875-0.05859375t0.1025390625-0.02197265625t0.0732421875-0.0439453125t0.05126953125-0.10986328125q0.029296875-0.0439453125,0.205078125-0.31494140625t0.1904296875-0.40283203125q0.029296875-0.1611328125,0.12451171875-0.32958984375t0.24169921875-0.35888671875t0.205078125-0.2783203125q0-0.0146484375,0.0146484375-0.0439453125t0.0146484375-0.0439453125q0-0.029296875-0.0146484375-0.1025390625t-0.0146484375-0.1025390625q0-0.1318359375,0.087890625-0.2197265625q0.0439453125-0.029296875,0.17578125-0.19775390625t0.2490234375-0.21240234375q-0.1171875,0-0.1171875-0.1171875q0-0.146484375,0.087890625-0.1904296875q0.1611328125-0.1318359375,0.205078125-0.41015625q0.029296875-0.1025390625,0.16845703125-0.30029296875t0.16845703125-0.27099609375t0.09521484375-0.19775390625t0.08056640625-0.22705078125q0-0.05859375,0.02197265625-0.16845703125t0.05126953125-0.234375t0.0439453125-0.16845703125l0-0.05859375q0-0.1025390625,0.0732421875-0.3369140625t0.0732421875-0.263671875q0.029296875-0.1904296875,0.25634765625-0.52734375t0.28564453125-0.498046875q0.05859375-0.17578125,0.2490234375-0.41015625q0-0.2197265625,0.146484375-0.3662109375l0-0.05859375q0-0.1171875,0.05859375-0.263671875t0.16845703125-0.32958984375t0.12451171875-0.21240234375q0.0439453125-0.1171875,0.13916015625-0.34423828125t0.13916015625-0.34423828125q0,0.0439453125-0.1025390625-0.087890625l-0.0439453125-0.1025390625q0-0.146484375,0.205078125-0.3515625q0.146484375-0.2197265625,0.205078125-0.2783203125l0-0.087890625q0-0.087890625,0.05859375-0.205078125q0.17578125-0.52734375,0.2783203125-0.6591796875q0.0439453125-0.0732421875,0.05126953125-0.21240234375t0.06591796875-0.21240234375l0.146484375-0.146484375q0.087890625-0.3515625,0.2490234375-0.4541015625q0.2490234375-0.76171875,0.3515625-0.8935546875q0.05859375-0.4541015625,0.234375-0.791015625q0.029296875-0.0732421875,0.08056640625-0.2197265625t0.08056640625-0.2197265625q0.1025390625-0.41015625,0.146484375-0.4541015625q0.087890625-0.1025390625,0.146484375-0.3076171875t0.087890625-0.263671875q-0.1171875,0-0.1171875-0.1171875q0-0.146484375,0.3662109375-0.5126953125q0.029296875-0.1171875,0.1318359375-0.32958984375t0.1904296875-0.30029296875q0.0146484375-0.0146484375,0.0732421875-0.087890625t0.087890625-0.1025390625t0.087890625-0.09521484375t0.10986328125-0.1025390625t0.10986328125-0.0732421875t0.12451171875-0.05126953125t0.12451171875,0q0.05859375-0.029296875,0.1611328125-0.029296875l0.146484375,0l0.1171875-0.029296875q0.029296875,0-0.05859375,0.0439453125l-0.087890625,0.0439453125q0.05859375-0.029296875,0.263671875-0.1171875q0.029296875-0.029296875,0.1171875-0.029296875q0.0439453125,0,0.1318359375,0.029296875t0.146484375,0.029296875q0.0146484375,0,0.05859375-0.0146484375t0.05859375-0.0146484375l0.05859375,0q0.05859375,0,0.16845703125,0.029296875t0.16845703125,0.029296875q0.087890625-0.05859375,0.322265625-0.05859375l0.2490234375,0l0.087890625,0q0.087890625,0,0.263671875-0.029296875t0.2490234375-0.029296875l0.087890625,0l0.146484375,0q0.1025390625,0,0.3955078125-0.05859375l0.1171875,0q0.1318359375,0,0.41748046875,0.05859375t0.41748046875,0.05859375q0.1025390625,0,0.205078125,0.06591796875t0.1904296875,0.18310546875t0.1611328125,0.24169921875t0.146484375,0.30029296875t0.1171875,0.29296875t0.1025390625,0.2783203125t0.0732421875,0.205078125q0.0146484375-0.0146484375,0.10986328125-0.09521484375t0.16845703125-0.12451171875t0.1318359375-0.029296875q0.1318359375,0,0.1318359375,0.1171875q0,0.0732421875-0.029296875,0.1025390625q-0.0439453125,0.0732421875-0.2197265625,0.18310546875t-0.17578125,0.19775390625l0,0.029296875q0.0439453125,0.146484375,0.234375,0.4541015625q0.05859375,0.1025390625,0.205078125,0.3369140625t0.234375,0.41015625t0.1318359375,0.3662109375q0.1318359375,0.234375,0.28564453125,0.73974609375t0.28564453125,0.72509765625q0.0439453125,0.087890625,0.16845703125,0.28564453125t0.205078125,0.3662109375t0.10986328125,0.31494140625q0.3369140625-0.2197265625,0.3955078125-0.2197265625q0.1025390625,0,0.146484375,0.1611328125l0,0.05859375q0,0.2197265625-0.2197265625,0.439453125q-0.087890625,0.1318359375-0.087890625,0.1904296875l0.05859375,0.1171875q0.087890625,0.1171875,0.2197265625,0.380859375q0.3369140625,0.5712890625,0.380859375,1.025390625q0.0732421875,0.205078125,0.1318359375,0.5126953125q0.087890625,0.087890625,0.087890625,0.17578125q0.029296875,0.029296875,0.087890625,0.029296875t0.087890625,0.05859375q0.029296875,0.029296875,0.029296875,0.1025390625l0,0.17578125l0,0.1171875q0.0732421875,0.0732421875,0.1171875,0.205078125q0.17578125,0.2197265625,0.2490234375,0.4248046875q0.205078125,0.2783203125,0.3662109375,0.8935546875t0.263671875,0.8203125q0.17578125,0.146484375,0.380859375,0.8642578125q0.4541015625,0.8642578125,0.5126953125,1.142578125q0.029296875,0.05859375,0.087890625,0.05859375q0.029296875,0,0.1025390625-0.029296875t0.1171875-0.029296875l0.05859375,0q0.146484375,0.0439453125,0.146484375,0.1171875q0,0.087890625-0.1025390625,0.2197265625t-0.1025390625,0.146484375q0.1171875,0.1904296875,0.234375,0.234375q0.05859375,0,0.205078125,0.6005859375q0.17578125,0.4248046875,0.2197265625,0.6884765625q0.1611328125,0.234375,0.498046875,0.849609375q0.1611328125,0.3076171875,0.46142578125,0.5859375t0.56396484375,0.2783203125q0.087890625,0.0146484375,0.263671875,0.09521484375t0.2490234375,0.08056640625q0.17578125,0,0.29296875,0.05859375q0.087890625-0.029296875,0.3076171875-0.029296875q0.615234375,0,0.8056640625,0.2783203125q0.087890625,0.17578125,0.087890625,0.5419921875q0,0.29296875-0.029296875,0.380859375q0.087890625,0.439453125,0.087890625,0.7177734375q0,0.2197265625-0.05859375,0.3955078125z M40.078125,66.1279296875l0,0.029296875l0-0.029296875l0-0.087890625q0-0.0732421875,0.0146484375-0.29296875t0.0146484375-0.3076171875q0-0.2783203125-0.05859375-0.2783203125q-0.1025390625,0.263671875-0.34423828125,0.75439453125t-0.34423828125,0.75439453125q0.263671875-0.17578125,0.3955078125-0.17578125q0.17578125,0,0.3515625,0.41015625q-0.029296875-0.1171875-0.029296875-0.5712890625l0-0.205078125z M37.8369140625,64.384765625l0,0.029296875l0-0.029296875q-0.05859375-0.029296875-0.10986328125-0.08056640625t-0.08056640625-0.0732421875t-0.05859375-0.02197265625q-0.05859375,0-0.205078125,0.146484375q-0.2197265625,0.1904296875-0.9375,0.908203125q-0.849609375,0.8203125-1.669921875,1.669921875q2.578125-1.4794921875,2.9296875-1.669921875q0.1611328125-0.1171875,0.4248046875-0.2783203125q0.029296875-0.029296875,0.087890625-0.029296875q0.1171875,0,0.1171875,0.146484375q0,0.1025390625-0.029296875,0.1318359375q-0.0439453125,0.087890625-0.1318359375,0.17578125t-0.15380859375,0.146484375t-0.18310546875,0.146484375t-0.1611328125,0.1318359375q-0.2197265625,0.205078125-0.69580078125,0.5712890625t-0.71044921875,0.556640625q0.52734375-0.3076171875,1.57470703125-0.9228515625t1.57470703125-0.908203125l-0.05859375,0q-0.2490234375,0-0.4248046875-0.1171875q-0.0732421875-0.029296875-0.5126953125-0.17578125q-0.146484375-0.0146484375-0.322265625-0.15380859375t-0.263671875-0.30029296875z M35.6689453125,67.0654296875q0.087890625-0.0439453125,0.18310546875-0.1171875t0.2197265625-0.18310546875t0.16845703125-0.15380859375q0.146484375-0.1171875,0.43212890625-0.34423828125t0.43212890625-0.34423828125q-0.29296875,0.1904296875-0.908203125,0.52001953125t-0.9228515625,0.52001953125q0.0439453125,0.0146484375,0.3955078125,0.1025390625z M36.8701171875,63.212890625q-0.1171875-0.146484375-0.234375-0.498046875t-0.1611328125-0.4541015625q-0.0146484375,0.0439453125-0.29296875,0.234375q-0.1318359375,0.087890625-0.38818359375,0.27099609375t-0.38818359375,0.27099609375q-1.6552734375,1.142578125-2.2265625,1.5673828125q-1.93359375,1.3916015625-2.841796875,2.2998046875q0.2197265625,0.0439453125,0.498046875-0.05859375t0.4541015625-0.2197265625t0.50537109375-0.37353515625t0.40283203125-0.30029296875q1.875-1.2890625,2.2998046875-1.5673828125q0.1318359375-0.0732421875,0.44677734375-0.30029296875t0.5126953125-0.3515625t0.49072265625-0.25634765625t0.52734375-0.1611328125q0.0146484375,0,0.05126953125-0.02197265625t0.05126953125-0.02197265625q0.0732421875,0,0.17578125,0.1025390625q0.087890625,0.0439453125,0.087890625,0.1171875q0,0.146484375-0.263671875,0.234375q-1.787109375,1.1279296875-2.138671875,1.376953125q-1.0400390625,0.732421875-1.7431640625,1.3623046875q-0.3369140625,0.3369140625-0.380859375,0.46875q0.17578125-0.05859375,0.3515625-0.1611328125t0.40283203125-0.28564453125t0.31494140625-0.24169921875q0.263671875-0.17578125,0.76171875-0.5419921875t0.7470703125-0.5419921875q0.1025390625-0.0732421875,0.41015625-0.3076171875t0.47607421875-0.35888671875t0.439453125-0.3076171875t0.52001953125-0.30029296875t0.498046875-0.1904296875q-0.2490234375-0.1904296875-0.3662109375-0.4833984375z M32.255859375,63.3154296875l0.029296875,0l-0.029296875,0q0.029296875,0.029296875,0.029296875,0.087890625q0.1171875-0.087890625,0.35888671875-0.27099609375t0.35888671875-0.27099609375q-0.673828125,0.4248046875-0.7470703125,0.4541015625z M35.4345703125,60.1513671875q-0.0146484375-0.0146484375-0.1904296875,0.10986328125t-0.205078125,0.16845703125q0.0146484375-0.0146484375,0.06591796875-0.05126953125t0.10986328125-0.06591796875t0.10986328125-0.06591796875t0.087890625-0.05859375t0.02197265625-0.03662109375z M35.068359375,59.375q-0.46875,0.3955078125-1.3916015625,1.171875t-1.3916015625,1.171875q0.29296875-0.1318359375,0.63720703125-0.34423828125t0.53466796875-0.35888671875t0.615234375-0.47607421875t0.5419921875-0.41748046875q0.0146484375-0.0146484375,0.09521484375-0.05859375t0.1611328125-0.09521484375t0.1611328125-0.10986328125t0.12451171875-0.1171875t0.029296875-0.087890625q-0.0732421875-0.146484375-0.1171875-0.2783203125z M36.328125,61.806640625l-0.029296875,0l0.029296875,0q-0.029296875,0.0146484375-0.087890625,0.05859375t-0.087890625,0.05859375q0.17578125,0.05859375,0.263671875,0.1171875q-0.05859375-0.17578125-0.087890625-0.234375z M36.005859375,61.2646484375q-0.029296875-0.029296875-0.32958984375,0.146484375t-0.73974609375,0.46875t-0.849609375,0.5712890625t-0.76904296875,0.53466796875t-0.40283203125,0.28564453125q0.2490234375-0.1318359375,1.142578125-0.6005859375t1.376953125-0.7470703125q0.0732421875-0.0439453125,0.40283203125-0.21240234375t0.34423828125-0.16845703125q-0.1611328125-0.2490234375-0.17578125-0.2783203125z M34.1455078125,61.77734375l0.234375-0.146484375l-0.3369140625,0.17578125q0.0439453125,0,0.1025390625-0.029296875q1.0400390625-0.6298828125,1.494140625-0.8642578125q0.05859375-0.029296875,0.05859375-0.1318359375q0-0.0732421875-0.05859375-0.205078125l-0.05859375-0.1171875q-0.17578125,0.1318359375-0.498046875,0.439453125t-0.46875,0.4248046875q-1.11328125,0.791015625-1.494140625,1.083984375q0.05859375-0.0439453125,0.43212890625-0.2783203125t0.59326171875-0.3515625z M34.5556640625,58.232421875q-0.029296875-0.05859375-0.1171875-0.380859375q-2.28515625,1.6845703125-3.3837890625,2.75390625q0.1025390625,0.05859375,0.205078125,0.2490234375q0.41015625-0.2490234375,1.26708984375-0.76171875t1.28173828125-0.7763671875q0.64453125-0.41015625,0.6884765625-0.4248046875q0.0439453125-0.029296875,0.1171875-0.05859375t0.1025390625-0.05126953125t0.029296875-0.06591796875q0-0.0146484375-0.0146484375-0.05126953125t-0.0146484375-0.06591796875q-0.029296875-0.0439453125-0.08056640625-0.18310546875t-0.08056640625-0.18310546875z M34.3212890625,57.2802734375q-0.146484375-0.2197265625-0.205078125-0.3369140625q-2.9296875,2.05078125-4.8046875,3.544921875q0.4541015625-0.263671875,1.35498046875-0.78369140625t1.34033203125-0.76904296875q0.087890625-0.0439453125,1.7431640625-1.025390625q0.1171875-0.05859375,0.4833984375-0.2783203125q0.1171875-0.0732421875,0.1171875-0.1171875q0-0.0146484375-0.0146484375-0.087890625t-0.0146484375-0.146484375z M33.779296875,56.3427734375q0.0146484375,0.029296875-0.732421875,0.50537109375t-1.60400390625,0.9814453125t-1.07666015625,0.59326171875q-0.0439453125,0.0146484375-0.3369140625,0.087890625q-0.05859375,0-0.18310546875,0.1611328125t-0.27099609375,0.1318359375q-0.234375,0.4541015625-1.1279296875,1.11328125q0.322265625-0.205078125,1.72119140625-1.09130859375t2.14599609375-1.34033203125q0.0732421875-0.0439453125,0.3662109375-0.22705078125t0.439453125-0.27099609375t0.38818359375-0.1904296875t0.44677734375-0.1171875q-0.029296875-0.05859375-0.087890625-0.16845703125t-0.087890625-0.16845703125z M27.0556640625,60.576171875l0.087890625-0.05859375l-0.087890625,0.05859375q1.318359375-0.9228515625,1.9482421875-1.5234375q-0.439453125,0.263671875-1.34033203125,0.78369140625t-1.35498046875,0.76904296875q0.05859375,0.029296875,0.17578125,0.029296875q0.087890625,0,0.28564453125-0.029296875t0.28564453125-0.029296875z M16.34765625,66.0107421875l0.1171875-0.1171875l-0.1171875,0.1171875q0.380859375-0.3515625,1.23046875-0.87890625q-0.05859375-0.029296875-0.2197265625,0.05859375t-0.32958984375,0.205078125t-0.19775390625,0.1318359375t-0.1171875,0.05126953125t-0.1171875,0.05859375t-0.087890625,0.05859375t-0.087890625,0.0732421875t-0.05126953125,0.09521484375t-0.02197265625,0.1171875l0,0.029296875z M19.98046875,62.1142578125l0,0.087890625q0.8056640625-0.5712890625,2.8564453125-1.6552734375q0.46875-0.234375,1.3916015625-0.8203125t1.4501953125-0.8349609375q-0.029296875,0-0.09521484375-0.029296875t-0.10986328125-0.029296875q-0.2197265625,0-0.3955078125,0.029296875q-0.146484375,0.0732421875-0.3515625,0.0732421875q-0.556640625,0-0.732421875-0.3662109375q-2.63671875,1.58203125-3.017578125,1.8017578125q-0.17578125,0.1025390625-0.263671875,0.25634765625t-0.1025390625,0.2490234375t-0.029296875,0.35888671875q-0.0146484375,0.1025390625-0.13916015625,0.25634765625t-0.13916015625,0.25634765625q-0.0146484375,0.1171875-0.16845703125,0.18310546875t-0.15380859375,0.18310546875z M25.078125,49.501953125l0,0.029296875q0.029296875,0,0.1318359375-0.09521484375t0.1171875-0.10986328125q0.3662109375-0.439453125,0.46875-0.5419921875q0.1318359375-0.146484375,0.3955078125-0.43212890625t0.3955078125-0.43212890625q-0.3955078125,0.263671875-0.791015625,0.4833984375q-0.3076171875,0.1025390625-0.3515625,0.17578125q-0.0439453125,0.41015625-0.3662109375,0.9228515625z M30.146484375,47.83203125l-0.7763671875,0.6005859375q0.7763671875-0.5712890625,0.7763671875-0.6005859375q-2.783203125,2.080078125-5.302734375,4.072265625q2.5634765625-1.7724609375,4.013671875-2.578125q1.142578125-0.6298828125,1.5966796875-0.7177734375q-0.05859375-0.1318359375-0.15380859375-0.3955078125t-0.15380859375-0.380859375z M27.8759765625,52.6513671875l-0.0732421875-0.05859375q0.0439453125,0.05859375,0.0732421875,0.05859375q-0.029296875-0.029296875-0.029296875-0.087890625q0-0.1611328125,0.41015625-0.5712890625q0.3076171875-0.322265625,0.94482421875-0.9375t0.94482421875-0.9228515625q-0.2197265625,0.1171875-1.435546875,0.849609375q-0.05859375,0.029296875-0.3955078125,0.263671875t-0.63720703125,0.40283203125t-0.40283203125,0.10986328125q0.1025390625,0.205078125,0.29296875,0.7177734375t0.3369140625,0.7763671875q0.4541015625-0.3955078125,1.53076171875-1.07666015625t1.56005859375-1.13525390625q-0.087890625,0.0439453125-0.8935546875,0.53466796875t-1.48681640625,0.84228515625t-0.73974609375,0.234375z M31.8017578125,51.728515625q0.0146484375,0.029296875-0.205078125,0.22705078125t-0.47607421875,0.41748046875t-0.28564453125,0.2490234375q-0.2490234375,0.2197265625-0.732421875,0.6591796875t-0.732421875,0.673828125q0.8935546875-0.6005859375,1.9189453125-1.171875q0.6884765625-0.380859375,0.8349609375-0.4248046875q-0.29296875-0.4541015625-0.322265625-0.6298828125z M28.9453125,55.302734375q-0.029296875-0.029296875-0.029296875-0.087890625q0-0.1904296875,0.30029296875-0.52001953125t0.62255859375-0.57861328125t0.732421875-0.5419921875t0.4248046875-0.29296875q-0.556640625,0.322265625-2.080078125,1.259765625q-0.029296875,0.029296875-0.1171875,0.08056640625t-0.1318359375,0.087890625t-0.0439453125,0.08056640625l0,0.029296875l0.05859375,0.205078125q0.146484375,0.2197265625,0.146484375,0.3955078125q0.0732421875,0.1318359375,0.21240234375,0.40283203125t0.21240234375,0.40283203125q0.8056640625-0.5419921875,2.2998046875-1.6845703125q0.05859375-0.0439453125,0.234375-0.1611328125t0.31494140625-0.22705078125t0.2783203125-0.234375t0.205078125-0.25634765625t0.02197265625-0.2490234375q-2.1240234375,1.3916015625-2.900390625,1.7724609375q-0.0146484375,0-0.1318359375,0.05859375t-0.234375,0.1025390625t-0.205078125,0.0439453125q-0.146484375,0-0.1904296875-0.087890625z M28.1982421875,57.998046875l0.029296875,0l-0.05859375,0l0.029296875,0q0.1171875,0,0.380859375,0.05859375t0.3662109375,0.05859375l0.087890625,0q0.1904296875-0.0439453125,0.1904296875-0.087890625l0-0.205078125q-0.029296875-0.0439453125-0.0439453125-0.15380859375t-0.0439453125-0.15380859375q-0.0439453125-0.0732421875-0.10986328125-0.24169921875t-0.10986328125-0.24169921875q-0.0732421875-0.1611328125-0.1171875-0.17578125q-0.1171875,0-0.1171875-0.087890625l0-0.146484375l0-0.05859375q-0.4833984375-0.9375-0.6591796875-1.4501953125q-0.1025390625,0.0732421875-0.2197265625,0.0732421875q-0.087890625,0-0.087890625-0.1025390625q0-0.1171875,0.1904296875-0.263671875q-0.0146484375-0.029296875-0.0732421875-0.1611328125t-0.087890625-0.17578125q-0.0439453125-0.087890625-0.1171875-0.2490234375t-0.1171875-0.2490234375q-0.05859375-0.1171875-0.1904296875-0.35888671875t-0.22705078125-0.44677734375t-0.15380859375-0.3955078125q-0.234375,0.46875-0.263671875,0.498046875l0,0.0732421875q0,0.2490234375-0.1904296875,0.439453125q0.0146484375,0.087890625-0.0732421875,0.322265625t-0.1611328125,0.3369140625q0,0.05859375-0.029296875,0.1025390625t-0.08056640625,0.1025390625t-0.06591796875,0.1025390625q-0.0146484375,0.029296875-0.02197265625,0.12451171875t-0.03662109375,0.13916015625q-0.05859375,0.615234375-0.2197265625,0.966796875q-0.0439453125,0.1025390625-0.15380859375,0.4833984375t-0.22705078125,0.52734375q-0.0146484375,0.146484375-0.205078125,0.322265625t-0.2197265625,0.2783203125q-0.0146484375,0.05859375-0.08056640625,0.205078125t-0.06591796875,0.2490234375q0.29296875,0.05859375,0.5419921875,0.05859375q0.1171875,0,0.3515625-0.05859375l0.1171875,0q0.087890625,0,0.30029296875,0.0439453125t0.30029296875,0.0439453125q0.05859375,0,0.234375-0.0439453125t0.2490234375-0.0439453125q0.0146484375,0,0.0439453125,0.0146484375t0.0439453125,0.0146484375q0.05859375-0.029296875,0.4248046875-0.029296875l0.146484375,0q0.05859375-0.029296875,0.1171875-0.029296875q0.0439453125,0,0.1025390625,0.0439453125t0.1171875,0.0439453125q0.087890625-0.05859375,0.263671875-0.1171875z M23.935546875,58.26171875l-0.205078125,0.1318359375l0,0q0.029296875-0.0439453125,0.205078125-0.1318359375q0.0439453125-0.029296875,0.15380859375-0.2490234375t0.09521484375-0.3076171875q-0.3955078125,0.3515625-2.490234375,1.9189453125z M24.5654296875,56.826171875l-0.029296875,0l0.029296875,0q0,0.0146484375-0.6591796875,0.4541015625q0.0732421875-0.0439453125,0.6591796875-0.4541015625z M21.38671875,58.6279296875q0-0.05859375,0.908203125-0.6005859375q0.17578125-0.1025390625,0.5126953125-0.32958984375t0.498046875-0.32958984375q0.0439453125-0.029296875,0.4248046875-0.3076171875t0.6005859375-0.41015625q0.0146484375-0.0146484375,0.322265625-0.234375t0.3369140625-0.3369140625q-1.5380859375,1.083984375-2.490234375,1.6552734375q-0.3662109375,0.2197265625-0.7763671875,0.41015625q-0.146484375,0.0732421875-0.21240234375,0.24169921875t-0.12451171875,0.24169921875z M21.7529296875,57.734375l0,0.087890625q1.0107421875-0.52734375,3.2373046875-2.109375q0.1611328125-0.1171875,0.234375-0.4248046875t0.1318359375-0.41015625l0-0.087890625q0-0.1318359375,0.09521484375-0.3515625t0.10986328125-0.3076171875q-1.9482421875,1.4501953125-2.724609375,2.1240234375q-0.1611328125,0.1025390625-0.5419921875,0.4248046875q-0.1025390625,0.2490234375-0.2783203125,0.322265625q0,0.380859375-0.263671875,0.732421875z M26.19140625,52.5634765625q0-0.05859375,0.029296875-0.087890625q-1.728515625,1.2451171875-2.8564453125,2.373046875q1.2890625-0.9521484375,2.109375-1.34765625q0.0146484375-0.0146484375,0.24169921875-0.10986328125t0.24169921875-0.13916015625q0.029296875-0.0732421875,0.09521484375-0.31494140625t0.13916015625-0.37353515625z M32.783203125,53.8525390625l-0.1171875,0.1318359375l0.1171875-0.1318359375q-0.41015625,0.41015625-1.0693359375,0.9375q0.8935546875-0.5712890625,1.23046875-0.6591796875q-0.029296875-0.0439453125-0.08056640625-0.13916015625t-0.08056640625-0.13916015625z M32.8857421875,54.453125l-0.2197265625,0.087890625q0.1904296875-0.05859375,0.2197265625-0.087890625q-0.4248046875,0.1904296875-2.431640625,1.4794921875q-0.0146484375,0.0146484375-0.13916015625,0.087890625t-0.27099609375,0.1611328125l-0.29296875,0.17578125t-0.24169921875,0.1611328125t-0.08056640625,0.1025390625q0.0732421875,0.1171875,0.205078125,0.4541015625q0.0439453125-0.1611328125,0.15380859375-0.3076171875t0.30029296875-0.29296875t0.31494140625-0.22705078125t0.37353515625-0.234375t0.2783203125-0.16845703125q0.146484375-0.1025390625,0.59326171875-0.38818359375t0.73974609375-0.5126953125t0.498046875-0.49072265625z M29.82421875,57.5439453125l0.087890625-0.087890625q-0.087890625,0.05859375-0.087890625,0.087890625q0.29296875-0.263671875,0.8056640625-0.6591796875q-0.05859375,0.029296875-0.2490234375,0.17578125t-0.3515625,0.234375t-0.263671875,0.0732421875q0.0146484375,0.0146484375,0.029296875,0.08056640625t0.029296875,0.09521484375z M30.205078125,56.796875q0.3076171875-0.1904296875,0.9375-0.54931640625t0.9521484375-0.53466796875q0.17578125-0.087890625,0.50537109375-0.28564453125t0.49072265625-0.28564453125q0.17578125-0.087890625,0.205078125-0.087890625q-0.0439453125-0.1025390625-0.1171875-0.5126953125q-0.0732421875,0.1171875-0.17578125,0.234375t-0.25634765625,0.234375t-0.24169921875,0.17578125t-0.29296875,0.1904296875t-0.234375,0.1611328125q-0.1904296875,0.146484375-0.5712890625,0.38818359375t-0.673828125,0.44677734375t-0.52734375,0.4248046875z M31.6845703125,51.3623046875l-0.1318359375,0.029296875l0.1318359375-0.029296875q-0.3076171875,0.1025390625-0.62255859375,0.25634765625t-0.6591796875,0.3662109375t-0.556640625,0.35888671875t-0.60791015625,0.43212890625t-0.52734375,0.38818359375q-0.6591796875,0.439453125-0.6298828125,0.5126953125q0.0732421875,0.0732421875,0.1171875,0.205078125q0.0439453125,0.0732421875,0.1025390625,0.24169921875t0.1025390625,0.24169921875q1.23046875-1.025390625,2.138671875-1.8603515625q0.029296875-0.029296875,0.1904296875-0.15380859375t0.3076171875-0.2490234375t0.3076171875-0.27099609375t0.25634765625-0.27099609375t0.08056640625-0.19775390625z M26.455078125,51.962890625q0-0.029296875-0.029296875-0.029296875q-0.0439453125,0-0.205078125,0.1611328125q0.05859375-0.029296875,0.1171875-0.029296875l0.05859375,0.029296875q0-0.0439453125,0.05859375-0.1318359375z M26.103515625,51.3916015625l0.7470703125-0.41015625q0-0.0146484375-0.15380859375,0.06591796875t-0.3369140625,0.18310546875t-0.25634765625,0.1611328125q2.6953125-1.552734375,4.04296875-2.3583984375q-0.41015625,0.1611328125-0.81298828125,0.3515625t-0.90087890625,0.49072265625t-0.73974609375,0.4541015625t-0.85693359375,0.56396484375t-0.732421875,0.498046875z M24.6240234375,50.76171875l0.0732421875-0.05859375q-0.0146484375,0.029296875-0.0732421875,0.05859375q0-0.029296875,0.3369140625-0.205078125t0.7177734375-0.3662109375t0.4541015625-0.234375q1.025390625-0.615234375,2.578125-1.58203125q-0.2783203125,0.1611328125-1.8017578125,1.00341796875t-2.28515625,1.38427734375z M24.1259765625,52.0654296875l0.029296875-0.0439453125q0,0.0146484375-0.029296875,0.0439453125q0-0.0439453125,0.59326171875-0.47607421875t0.81298828125-0.57861328125q1.376953125-1.083984375,2.0654296875-1.5966796875q-1.4501953125,0.908203125-2.666015625,1.5673828125q-0.3955078125,0.1025390625-0.4248046875,0.234375q-0.2783203125,0.7470703125-0.380859375,0.849609375z M24.0234375,53.193359375l-0.05859375,0.05859375q0.087890625-0.05859375,0.087890625-0.087890625l-0.029296875,0.029296875q-0.029296875,0.029296875-0.146484375,0.09521484375t-0.1904296875,0.1171875t-0.15380859375,0.12451171875t-0.10986328125,0.146484375q0.8056640625-0.52734375,1.11328125-0.6884765625z M24.990234375,53.046875l-0.3369140625,0.205078125q0.2197265625-0.087890625,0.3369140625-0.205078125q-0.64453125,0.41015625-1.083984375,0.6591796875l-0.205078125,0.1025390625t-0.30029296875,0.17578125t-0.15380859375,0.146484375q-0.1171875,0.3515625-0.1171875,0.5712890625q0.5419921875-0.5712890625,1.8603515625-1.6552734375z M22.587890625,56.0205078125l0,0.029296875l0,0.029296875q0.0439453125,0,0.2490234375-0.205078125q0.17578125-0.1318359375,0.380859375-0.3369140625q0.615234375-0.498046875,0.9375-0.6884765625q0.9521484375-0.732421875,1.5234375-1.142578125q-0.6298828125,0.322265625-2.0361328125,1.2890625q-0.1318359375,0.1025390625-0.38818359375,0.30029296875t-0.38818359375,0.30029296875q-0.0732421875,0.05859375-0.13916015625,0.21240234375t-0.13916015625,0.21240234375z M21.181640625,59.6533203125q0-0.029296875,0.06591796875-0.09521484375t0.16845703125-0.1318359375t0.1904296875-0.1318359375t0.18310546875-0.1171875t0.10986328125-0.06591796875q0.4833984375-0.3662109375,0.6591796875-0.5126953125q0.703125-0.498046875,1.11328125-0.8349609375q-0.2490234375,0.146484375-0.78369140625,0.44677734375t-0.78369140625,0.44677734375q-0.1171875,0.0732421875-0.37353515625,0.22705078125t-0.37353515625,0.22705078125q-0.087890625,0.0439453125-0.1171875,0.12451171875t-0.03662109375,0.21240234375t-0.02197265625,0.205078125z M21.50390625,61.6015625q-1.40625,0.849609375-1.8896484375,1.259765625q0.2197265625-0.1171875,1.8896484375-1.259765625z M19.4384765625,63.271484375l0,0.0439453125l0.205078125-0.1025390625q0.3662109375-0.2197265625,0.4248046875-0.263671875q0.3076171875-0.1611328125,1.083984375-0.7177734375q0.1904296875-0.1318359375,0.6005859375-0.41015625t0.6005859375-0.41015625q0.05859375-0.0439453125,0.25634765625-0.16845703125t0.3369140625-0.234375t0.21240234375-0.22705078125q-0.1025390625,0.0732421875-1.13525390625,0.81298828125t-1.56005859375,1.09130859375q-0.52734375,0.3369140625-0.6884765625,0.41015625q-0.029296875,0.0146484375-0.1171875,0.0439453125t-0.146484375,0.05859375t-0.0732421875,0.0732421875z M23.3935546875,60.6640625l0.0732421875-0.029296875l-0.0732421875,0.029296875q0.0732421875-0.0439453125,0.21240234375-0.146484375t0.21240234375-0.146484375z M16.6259765625,65.205078125l-0.0732421875,0.146484375q0.0732421875,0,0.1611328125-0.087890625q0-0.05859375-0.087890625-0.05859375z M18.57421875,64.53125q0.0146484375-0.0439453125,0.18310546875-0.1318359375t0.4248046875-0.205078125t0.28564453125-0.1318359375q0.703125-0.41015625,1.171875-0.6591796875q0.0439453125-0.029296875,0.263671875-0.13916015625t0.46142578125-0.234375t0.49072265625-0.27099609375t0.41015625-0.263671875t0.146484375-0.17578125q-0.7470703125,0.41015625-1.9482421875,1.11328125q-0.234375,0.1318359375-0.673828125,0.38818359375t-0.673828125,0.38818359375l-0.1611328125,0.08056640625t-0.24169921875,0.12451171875t-0.13916015625,0.1171875z M25.6201171875,59.4921875l-0.146484375,0.1025390625l0.17578125-0.1025390625l-0.029296875,0q-0.3076171875,0.1904296875-1.11328125,0.76171875q0.1904296875-0.1171875,0.69580078125-0.44677734375t0.78369140625-0.49072265625q-0.05859375,0.029296875-0.18310546875,0.087890625t-0.18310546875,0.087890625z M27.744140625,58.8623046875l-0.439453125,0.3369140625q0.0146484375-0.0146484375,0.03662109375-0.029296875t0.08056640625-0.05859375t0.10986328125-0.08056640625t0.10986328125-0.08056640625t0.0732421875-0.0732421875l0.029296875-0.0146484375q-1.494140625,1.142578125-2.1826171875,1.8017578125q0.1611328125,0,0.7763671875-0.41015625q0.4833984375-0.263671875,0.8056640625-0.4833984375l1.5380859375-0.87890625q-0.087890625,0-0.30029296875-0.029296875t-0.30029296875-0.029296875l-0.029296875,0q-0.029296875,0-0.09521484375,0.029296875t-0.10986328125,0.029296875q-0.0146484375,0-0.05126953125-0.0146484375t-0.05126953125-0.0146484375z M31.083984375,57.734375q0.9375-0.5419921875,1.9775390625-1.2890625q-0.3369140625,0.2197265625-0.99609375,0.64453125t-0.9814453125,0.64453125z M33.486328125,55.654296875q-0.1318359375-0.1904296875-0.1318359375-0.322265625q-1.4794921875,0.9814453125-2.2705078125,1.58203125q-1.201171875,0.791015625-1.171875,0.99609375q1.34765625-0.76171875,2.63671875-1.5380859375q0.52734375-0.29296875,0.8349609375-0.498046875q0.1318359375-0.087890625,0.1318359375-0.1025390625t-0.0146484375-0.05126953125t-0.0146484375-0.06591796875z M32.431640625,52.9296875q-0.029296875-0.029296875-0.1171875-0.2783203125q-0.0732421875,0.05859375-0.43212890625,0.30029296875t-0.47607421875,0.32958984375t-0.41748046875,0.3076171875t-0.46142578125,0.3515625l-0.40283203125,0.32958984375t-0.4248046875,0.380859375t-0.35888671875,0.37353515625q0.7470703125-0.322265625,1.7138671875-0.9814453125q0.087890625-0.0439453125,1.2890625-0.791015625q0.146484375-0.0732421875,0.146484375-0.146484375q0-0.087890625-0.05859375-0.17578125z M31.5234375,50.9814453125q0-0.087890625-0.029296875-0.1171875q-0.1318359375,0.2197265625-0.322265625,0.41015625q0.0439453125-0.029296875,0.1611328125-0.06591796875t0.16845703125-0.087890625t0.02197265625-0.13916015625z M31.201171875,50.0732421875q-0.05859375-0.087890625-0.1904296875-0.27099609375t-0.22705078125-0.3515625t-0.15380859375-0.32958984375q-0.6591796875,0.380859375-1.83837890625,1.22314453125t-1.70654296875,1.17919921875l0.087890625,0.087890625q0.0146484375-0.087890625,0.18310546875-0.205078125t0.41015625-0.24169921875t0.25634765625-0.12451171875l0.47607421875-0.28564453125t0.556640625-0.3369140625t0.46142578125-0.28564453125q0.087890625-0.0439453125,0.30029296875-0.17578125t0.3955078125-0.2197265625t0.32958984375-0.1025390625q0.17578125,0,0.17578125,0.1171875q0,0.05859375-0.0439453125,0.13916015625t-0.1025390625,0.16845703125t-0.05859375,0.1025390625q-0.3515625,0.41015625-1.11328125,1.13525390625t-0.8349609375,0.79833984375q0.2490234375-0.1318359375,0.71044921875-0.41015625t0.69580078125-0.41015625q0.146484375-0.087890625,0.46142578125-0.27099609375t0.46142578125-0.27099609375q0.0439453125-0.0146484375,0.1318359375-0.08056640625t0.17578125-0.10986328125t0.146484375-0.0439453125q-0.029296875-0.05859375-0.0732421875-0.21240234375t-0.0732421875-0.21240234375z M27.744140625,47.6416015625l-0.029296875,0l0.029296875,0q-0.146484375,0.0732421875-0.17578125,0.0732421875q-0.0439453125,0-0.13916015625-0.0146484375t-0.12451171875-0.0146484375q-0.1611328125,0-0.2197265625,0.087890625q-0.146484375,0.17578125-0.43212890625,0.49072265625t-0.31494140625,0.34423828125q-0.3662109375,0.3955078125-1.318359375,1.46484375q1.083984375-0.5419921875,4.2626953125-2.548828125q-0.46875,0.1171875-0.5712890625,0.1171875q-0.087890625,0-0.205078125-0.05859375q-0.0439453125,0.0146484375-0.16845703125,0.0732421875t-0.19775390625,0.05859375l-0.146484375-0.0732421875l-0.146484375,0l-0.1025390625,0z M17.0654296875,66.9921875q0.2197265625,0,0.3369140625,0.0732421875q0.146484375-0.087890625,0.4248046875-0.3662109375q0.5712890625-0.5126953125,0.9814453125-0.7763671875q-0.234375,0.146484375-0.8642578125,0.49072265625t-0.966796875,0.54931640625l-0.029296875-0.029296875q0.029296875,0,0.1171875,0.05859375z M19.5849609375,67.0654296875l0.029296875,0l-0.029296875,0q0.1904296875-0.1318359375,0.5712890625-0.1318359375l0.05859375,0q0.05859375,0.029296875,0.1611328125,0.029296875q0.146484375,0,0.28564453125-0.09521484375t0.31494140625-0.28564453125t0.234375-0.2490234375q0.029296875-0.029296875,0.19775390625-0.18310546875t0.34423828125-0.31494140625t0.3515625-0.3369140625t0.27099609375-0.32958984375t0.06591796875-0.21240234375q-0.029296875-0.029296875-0.087890625-0.029296875q-0.0732421875,0-0.19775390625,0.05859375t-0.2490234375,0.146484375t-0.15380859375,0.1025390625q-0.4541015625,0.234375-0.9375,0.52734375l-2.2412109375,1.3623046875l0.087890625,0q0.05859375,0,0.205078125-0.06591796875t0.2197265625-0.06591796875q0.1025390625,0,0.322265625,0.0732421875q0.0439453125-0.0439453125,0.087890625-0.0439453125t0.087890625,0.0439453125z M22.763671875,66.93359375q0.1171875,0.0146484375,0.2197265625-0.087890625t0.205078125-0.28564453125t0.146484375-0.22705078125q0.263671875-0.3662109375,0.849609375-1.0400390625q-0.29296875,0.1025390625-0.5859375,0.234375t-0.64453125,0.34423828125t-0.53466796875,0.322265625t-0.60791015625,0.3955078125t-0.5126953125,0.34423828125q0.3369140625,0,0.6884765625,0.05859375l0.05859375,0q0.0732421875,0,0.21240234375-0.05859375t0.21240234375-0.05859375q0.05859375,0,0.15380859375,0.029296875t0.13916015625,0.029296875z M24.6240234375,66.69921875q0-0.05859375-0.029296875-0.05859375q-0.0439453125,0-0.1171875,0.1171875q0,0.05859375,0.087890625,0.146484375q0.05859375-0.05859375,0.05859375-0.087890625l0-0.05859375l0-0.05859375z M24.3896484375,66.2158203125l-0.234375,0.17578125q0.05859375-0.05859375,0.234375-0.17578125q0.234375-0.1318359375,0.234375-0.4248046875q0-0.0732421875-0.0146484375-0.24169921875t-0.0146484375-0.25634765625q-0.087890625-0.05859375-0.60791015625,0.63720703125t-0.68115234375,0.97412109375q0.146484375-0.029296875,0.34423828125-0.15380859375t0.41748046875-0.30029296875t0.322265625-0.234375z M23.2763671875,65.234375l0.029296875,0l-0.029296875,0l-0.087890625,0l-0.1171875,0q-0.05859375,0-0.146484375,0.029296875q-0.0439453125,0.0146484375-0.10986328125-0.00732421875t-0.08056640625-0.02197265625q-0.05859375,0-0.087890625,0.05859375q-0.029296875,0.029296875-0.0732421875,0.087890625t-0.0732421875,0.087890625q-0.3369140625,0.3515625-1.0546875,1.025390625q0.7470703125-0.4833984375,2.05078125-1.23046875l-0.1025390625,0q-0.05859375,0-0.1171875-0.029296875z M19.98046875,65.9228515625l0.3662109375-0.2197265625q0.029296875,0-0.5126953125,0.3369140625q0.029296875-0.029296875,0.146484375-0.1171875q0.1611328125-0.087890625,0.9814453125-0.56396484375t1.2744140625-0.72509765625q-0.1611328125-0.1611328125-0.2783203125-0.5126953125q-0.1025390625,0.0732421875-0.6884765625,0.439453125t-0.76904296875,0.4833984375t-0.673828125,0.44677734375t-0.75439453125,0.53466796875t-0.6298828125,0.50537109375t-0.6591796875,0.59326171875q0.2783203125-0.0732421875,0.59326171875-0.22705078125t0.52734375-0.28564453125t0.56396484375-0.35888671875t0.5126953125-0.32958984375z M22.0751953125,63.6669921875q0-0.0146484375-0.16845703125,0.087890625t-0.30029296875,0.1904296875q-0.029296875,0.0146484375-0.27099609375,0.1611328125t-0.38818359375,0.2197265625q0.05859375-0.029296875,0.35888671875-0.16845703125t0.4833984375-0.2490234375t0.28564453125-0.24169921875z M22.44140625,62.71484375q0,0.05859375-1.259765625,0.6884765625q-0.2490234375,0.146484375-0.7763671875,0.44677734375t-0.791015625,0.44677734375q-2.0361328125,1.11328125-2.900390625,1.7724609375q0.1318359375-0.0732421875,1.23779296875-0.7177734375t1.69189453125-0.966796875q0.0732421875-0.0439453125,1.962890625-1.142578125q0.0732421875-0.0439453125,0.27099609375-0.13916015625t0.3515625-0.1904296875t0.21240234375-0.19775390625z M24.7265625,60.78125q0.05859375-0.05859375,0.17578125-0.05859375l0.087890625,0q0.1171875,0,0.17578125-0.087890625q0.2197265625-0.2197265625,0.4833984375-0.439453125q0.87890625-0.76171875,1.376953125-1.142578125q-1.7578125,1.0400390625-2.783203125,1.69921875l0.234375,0q0.1904296875,0,0.2490234375,0.029296875z M27.9345703125,60.60546875l0.029296875-0.029296875l-0.029296875,0.029296875q0.1318359375-0.087890625,0.234375-0.087890625q0.0732421875,0,0.22705078125,0.029296875t0.22705078125,0.029296875q0.087890625,0,0.146484375-0.029296875q0.498046875-0.439453125,1.0546875-0.8349609375q2.2265625-1.640625,2.9296875-2.138671875q-0.7177734375,0.41015625-2.607421875,1.5966796875q-0.234375,0.146484375-0.69580078125,0.44677734375t-0.71044921875,0.44677734375q-0.05859375,0.029296875-0.263671875,0.1611328125t-0.380859375,0.25634765625t-0.1611328125,0.12451171875z M30.05859375,60.576171875l-0.029296875,0l0.029296875,0q0.4248046875,0,0.6591796875-0.05859375q0.0732421875-0.0732421875,0.24169921875-0.22705078125t0.24169921875-0.22705078125q0.2783203125-0.263671875,1.318359375-1.0986328125q-0.4541015625,0.2783203125-1.39892578125,0.82763671875t-1.41357421875,0.81298828125l0.087890625,0q0.029296875,0,0.09521484375-0.0146484375t0.16845703125-0.0146484375z M32.9443359375,60.1953125l-0.2197265625,0.1171875q-0.029296875,0,0.3662109375-0.2197265625q-0.029296875,0.0439453125-0.146484375,0.1025390625q-0.029296875,0.0146484375-0.24169921875,0.12451171875t-0.4248046875,0.22705078125t-0.439453125,0.2490234375t-0.3662109375,0.24169921875t-0.12451171875,0.16845703125q2.2705078125-1.318359375,3.1494140625-1.9775390625q-0.263671875,0.17578125-0.78369140625,0.4833984375t-0.76904296875,0.4833984375z M31.8310546875,62.1435546875q0,0.05859375,0.05859375,0.05859375q0.029296875,0,0.146484375-0.1171875q-0.29296875,0-0.29296875-0.1318359375q0-0.146484375,0.29296875-0.4248046875t0.4541015625-0.380859375q0.17578125-0.1318359375,0.52001953125-0.41748046875t0.50537109375-0.41748046875q-0.9814453125,0.6298828125-2.05078125,1.201171875q0.0439453125,0.1318359375,0.18310546875,0.3369140625t0.18310546875,0.29296875z M32.314453125,62.6416015625l-0.05859375,0.0439453125q0.029296875-0.0146484375,0.05859375-0.0439453125q-0.0439453125,0.0439453125-0.2197265625,0.1318359375l0,0.05859375q0.087890625-0.05859375,0.2197265625-0.1904296875z M30.4541015625,65.1318359375l-0.1611328125,0.1318359375q0.0439453125-0.0439453125,0.1611328125-0.1318359375l-0.087890625,0.029296875q-0.029296875,0-0.06591796875-0.0146484375t-0.06591796875-0.0146484375q-0.0146484375,0-0.029296875,0.0146484375t-0.03662109375,0.029296875t-0.05126953125,0.029296875q-0.1318359375,0-0.17578125,0.146484375q-0.05859375,0.0732421875-0.18310546875,0.205078125t-0.18310546875,0.205078125q0.146484375-0.1025390625,0.439453125-0.31494140625t0.439453125-0.31494140625z M29.5166015625,65.3515625l0.029296875,0q0.0146484375,0,0.03662109375-0.029296875t0.0439453125-0.06591796875t0.03662109375-0.05126953125l-0.029296875,0q-0.1171875,0-0.1171875,0.146484375z M29.6630859375,66.9921875l0.0439453125-0.029296875q-0.0439453125,0-0.0439453125,0.029296875q0.05859375-0.0439453125,0.2197265625-0.12451171875t0.263671875-0.16845703125q0.146484375-0.1904296875,0.3369140625-0.3369140625q0.1025390625-0.087890625,0.31494140625-0.263671875t0.31494140625-0.263671875q0.5712890625-0.4833984375,1.7724609375-1.3916015625q2.314453125-1.640625,3.1787109375-2.2119140625q-0.1318359375,0.0146484375-0.2490234375,0.0439453125t-0.263671875,0.1025390625t-0.21240234375,0.10986328125t-0.24169921875,0.15380859375t-0.205078125,0.1318359375q-0.205078125,0.146484375-0.60791015625,0.40283203125t-0.53466796875,0.34423828125q-0.9228515625,0.5859375-1.11328125,0.6884765625q-0.1025390625,0.05859375-0.16845703125,0.1171875t-0.1318359375,0.1611328125t-0.10986328125,0.146484375q-0.5859375,0.6884765625-0.9375,0.6005859375q-0.0439453125-0.029296875-0.09521484375-0.05859375t-0.08056640625-0.05126953125t-0.05859375-0.02197265625t-0.1904296875,0.1025390625q-0.5126953125,0.3662109375-0.6005859375,0.439453125q-0.3515625,0.2197265625-0.6591796875,0.4833984375q0,0.0439453125,0.0146484375,0.15380859375t0.0146484375,0.15380859375q0.0146484375,0.1025390625-0.03662109375,0.3076171875t-0.05126953125,0.2783203125l0,0.0439453125q0.029296875-0.029296875,0.1171875-0.0732421875z M31.8603515625,66.9921875l0.029296875,0l-0.029296875,0l0.146484375,0.0732421875l0-0.1025390625q0-0.1318359375,0.09521484375-0.29296875t0.205078125-0.263671875t0.27099609375-0.24169921875t0.205078125-0.18310546875q0.5859375-0.46875,1.4208984375-1.0546875q-2.1240234375,1.4501953125-2.9150390625,1.9482421875q0.234375,0.1171875,0.5712890625,0.1171875z M33.896484375,66.904296875l0.029296875,0l-0.05859375,0l0.029296875,0q0.029296875,0,0.1318359375-0.0146484375t0.146484375-0.0146484375q0.087890625,0,0.205078125,0.05859375q0.05859375-0.05859375,0.18310546875-0.1904296875t0.18310546875-0.1904296875q0.146484375-0.146484375,0.44677734375-0.4541015625t0.44677734375-0.4541015625q0.3076171875-0.3076171875,1.7431640625-1.669921875q-0.2783203125,0.05859375-0.6298828125,0.234375t-0.56396484375,0.322265625t-0.615234375,0.46142578125t-0.50537109375,0.38818359375q-0.234375,0.1611328125-0.703125,0.52001953125t-0.84228515625,0.6298828125t-0.73974609375,0.49072265625q0.0732421875,0.0146484375,0.19775390625-0.05126953125t0.19775390625-0.06591796875q0.1171875,0,0.17578125,0.05859375q0.29296875-0.05859375,0.5419921875-0.05859375z M38.84765625,67.021484375q0.05859375,0,0.234375-0.3662109375t0.3662109375-0.8203125t0.205078125-0.4833984375q-1.1279296875,0.6591796875-2.783203125,1.58203125l0.3662109375,0q0.76171875,0,1.611328125,0.087890625z M39.7265625,67.1240234375q0.029296875-0.0146484375,0.0732421875-0.029296875t0.0732421875-0.029296875q-0.029296875-0.0439453125-0.0732421875-0.13916015625t-0.0732421875-0.13916015625q-0.263671875,0.1318359375-0.4833984375,0.3076171875q0.029296875,0.029296875,0.087890625,0.029296875q0.0439453125,0,0.1318359375-0.0146484375t0.1318359375-0.0146484375q0.1025390625,0,0.1318359375,0.029296875z"/><path fill="#0f80d1" d="M65.48064453125,72.36q-0.96,1.48-0.96,1.92t0.36,0.64q0,0.04-0.72,0.6q-0.64,0.32-1.44,0.32t-1.16-0.18t-0.24-0.58q0.56-1.8,4.2-7.22t4.88-7.66q2.68-4.84,2.68-7.72q0-1.2-0.4-2.04q-0.8-1.64-3.8-1.64q-4.68,0-9.68,4.04q-4,3.24-6.12,6.86t-2.12,6.46q0,4.08,3.6,4.16l0.32,0q4.6,0,7.12-3.32q0.96-1.32,0.96-2.24t-0.4-1.16q-0.04-0.04-0.04-0.16t0.24-0.12q1.04,0,1.04,1.36q0,0.84-0.82,2.28t-2.9,2.72t-4.84,1.28t-4.4-1.72t-1.64-4.52q0-6.32,8.24-12.92q2.12-1.68,5.58-2.76t6.62-1.08t4.3,1.1t1.14,2.94q0,2.8-2.28,7.56q-0.72,1.48-3.24,5.4l3.08-3.92q2.24-2.92,7.76-8.32q1.2-1.16,2.66-1.94t2.5-0.78q1.44,0,1.44,1.52q0,1.32-1.26,3.98t-2.54,5.04t-1.56,3.12t-0.4,1.18t-0.16,0.48q0.12-0.2,2.64-3.06t7.44-7.14l6.4-5.28q0.76-0.64,1.36-0.64t0.98,1t0.38,1.62t-1.92,2.58q-5,5.12-8.48,11.2t-3.48,8.68q0,0.68,0.24,0.94t0.76,0.16t2.18-0.82t2.18-0.84q0.2,0.08,0.2,0.2q0,0.6-2.1,1.68t-3.16,1.08t-1.3-0.36q-0.72-1.04-0.72-2.52q0-3.44,3.68-9.88q2.36-4.04,7.28-10.88q-3.84,3.12-10.4,9.56t-8.6,10.08q-1.04,1.88-2.52,1.88q-0.68,0-0.68-0.48q0-0.16,0.82-1.44t3.62-6q6.88-11.96,6.88-14.4q0-0.64-0.44-0.64q-0.64,0-1.88,1.08q-4.44,3.72-9.44,9.72t-7.52,9.96z"/></svg>
